<?xml version="1.0" encoding="UTF-8"?>
<svg width="1100" height="1800" xmlns="http://www.w3.org/2000/svg" xmlns:svg="http://www.w3.org/2000/svg">
 <title>orange marker black border</title>
 <g>
  <title>Layer 1</title>
  <path fill-rule="evenodd" clip-rule="evenodd" fill="#007fff" stroke="#000000" stroke-width="30" stroke-miterlimit="10" d="m554.015166,1729.874346c-38.76587,-190.30103 -107.1159,-348.66504 -189.90295,-495.43994c-61.40698,-108.87207 -132.54395,-209.36304 -198.36402,-314.93799c-21.97198,-35.24402 -40.93396,-72.47705 -62.04699,-109.05408c-42.21595,-73.13696 -76.44397,-157.935 -74.26899,-267.932c2.125,-107.47297 33.20801,-193.68396 78.02997,-264.172c73.71906,-115.93497 197.20105,-210.98898 362.88404,-235.969c135.46606,-20.42398 262.47509,14.08204 352.54296,66.74802c73.6001,43.03799 130.59607,100.52701 173.92005,168.28c45.21997,70.716 76.35901,154.26001 78.97095,263.23199c1.33703,55.83002 -7.80494,107.53199 -20.68396,150.41797c-13.03394,43.40906 -33.99598,79.69501 -52.646,118.4541c-36.40601,75.65894 -82.04895,144.98194 -127.85498,214.34595c-136.43701,206.60596 -264.4961,417.30994 -320.58008,706.02698z" id="svg_2"/>
  <circle fill-rule="evenodd" clip-rule="evenodd" cx="552.371226" cy="529.042316" r="183.332031" id="svg_4" fill="black"/>
 </g>
</svg>